# xmcd
#
# Track frame offsets:
#	150
#	14501
#	35129
#	54012
#	71175
#	86870
#	106097
#	126994
#	160157
#	182108
#	198467
#	220533
#	241232
#	266180
#	283707
#	314110
#	336592
#
# Disc length: 4738 seconds
#
# Revision: 1
# Processed by: cddbd v1.5.2PL0 Copyright (c) Steve Scherf et al.
# Submitted via: audiograbber 1.83.01
#
DISCID=0a128011
DTITLE=—борник - Romantic Collection - Love Blues  CD1
DYEAR=1900
DGENRE=Blues
TTITLE0=U2 - One
TTITLE1=Santana - Europa
TTITLE2=Eric Clapton - Wonderful Tonight
TTITLE3=Gary Moore - Parazienne Walkways
TTITLE4=Tony Joe - White Good In Blues
TTITLE5=Dana Giles - Piewhere Blues Begins
TTITLE6=Blues Company - Silent Nite
TTITLE7=Stan Webb's Chiken Shack -  Don't You Worry About A Thing
TTITLE8=Jan Akkermans - Hame On You
TTITLE9=John Campbell - Wild Streak
TTITLE10=J.J.Calec - Loudy Day
TTITLE11=ZZ Top - Cover You r Rig
TTITLE12=Lucky Peterson - Who Been Talking
TTITLE13=London Symphonic Orghestra - One
TTITLE14=Bonus
TTITLE15=Bonus
TTITLE16=Bonus
EXTD=
EXTT0=
EXTT1=
EXTT2=
EXTT3=
EXTT4=
EXTT5=
EXTT6=
EXTT7=
EXTT8=
EXTT9=
EXTT10=
EXTT11=
EXTT12=
EXTT13=
EXTT14=
EXTT15=
EXTT16=
PLAYORDER=
